<?xml version="1.0" encoding="UTF-8"?>
<svg version="1.1" xmlns="http://www.w3.org/2000/svg" width="512" height="512">
<path d="M0 0 C2.8206338 1.27309688 5.67709726 2.34488323 8.59082031 3.38427734 C21.87451519 8.13387858 39.77168175 15.12627262 47.890625 27.3046875 C47.74625 28.5009375 47.601875 29.6971875 47.453125 30.9296875 C47.34202284 34.09902269 47.75961 35.13643666 49.74609375 37.6875 C52.06344894 39.97839273 54.44569756 42.15120837 56.890625 44.3046875 C57.92123047 45.42810547 57.92123047 45.42810547 58.97265625 46.57421875 C60.88559796 48.69636489 60.88559796 48.69636489 64.328125 48.2421875 C67.890625 48.3046875 67.890625 48.3046875 70.37109375 50.4453125 C88.06301844 70.52358983 94.41357374 99.32895836 95.890625 125.3046875 C99.00467311 120.84121854 100.1680069 117.41412838 100.828125 111.9921875 C102.07217448 102.73093024 105.22950872 95.63501219 112.6796875 89.77734375 C122.18195747 83.44809326 132.28435975 82.79362141 143.390625 85 C157.00224765 88.82024315 167.20888915 96.04509616 174.703125 108.0546875 C181.42642902 120.30399482 182.83914732 133.557566 179.453125 147.1171875 C174.87936149 161.36621998 167.61296206 172.97482251 156.890625 183.3046875 C156.18550781 184.02914062 155.48039062 184.75359375 154.75390625 185.5 C147.15671988 192.88012391 137.34244803 197.68811584 127.890625 202.3046875 C129.46923938 204.5581294 131.05326721 206.80741693 132.640625 209.0546875 C133.0840625 209.68890625 133.5275 210.323125 133.984375 210.9765625 C135.86287158 213.62855767 137.65021892 216.06744466 139.96875 218.35546875 C142.44691779 220.86889502 144.12893868 223.71246081 145.890625 226.7421875 C146.27089844 227.38615479 146.65117187 228.03012207 147.04296875 228.69360352 C153.33266499 239.39286915 159.49827507 250.17265174 165.515625 261.02734375 C165.91910156 261.7531665 166.32257813 262.47898926 166.73828125 263.22680664 C167.47955873 264.56346186 168.21687069 265.90232807 168.94921875 267.24389648 C170.4182524 269.89365879 171.89571662 272.31083267 173.83154297 274.6472168 C175.94242431 277.37154018 177.32822072 279.95118374 178.7734375 283.07421875 C179.29599121 284.19868408 179.81854492 285.32314941 180.35693359 286.48168945 C180.90430176 287.68140381 181.45166992 288.88111816 182.015625 290.1171875 C182.59317205 291.37137919 183.17080994 292.62552905 183.74853516 293.87963867 C187.83370479 302.79093023 191.70502678 311.78304658 195.37939453 320.87231445 C197.53097097 326.17082278 199.83332112 331.37325856 202.27734375 336.54296875 C222.56068407 379.58414636 222.56068407 379.58414636 216.265625 397.8671875 C210.67765312 409.33518554 203.08815146 414.85189395 191.3125 419.37109375 C190.54333252 419.66851471 189.77416504 419.96593567 188.98168945 420.27236938 C181.85226959 422.99713783 174.65585862 425.52380435 167.453125 428.046875 C163.82958949 429.32476234 160.20647466 430.60383535 156.58349609 431.88330078 C154.1099378 432.75164632 151.63365225 433.61225961 149.15478516 434.46533203 C145.51676048 435.72010372 141.89083298 437.00561265 138.265625 438.296875 C136.62315796 438.85047195 136.62315796 438.85047195 134.94750977 439.41525269 C128.05020866 441.91097261 123.29223678 445.06067173 118.0500946 450.20071411 C114.87171707 453.29741051 111.34670647 455.78933052 107.703125 458.3046875 C106.97681885 458.81032227 106.2505127 459.31595703 105.50219727 459.83691406 C93.53346235 468.08079848 81.06508011 475.17384985 67.890625 481.3046875 C66.83246582 481.79751221 66.83246582 481.79751221 65.75292969 482.30029297 C33.44268867 497.1109605 -0.42809323 503.75508412 -35.796875 503.6171875 C-36.7680426 503.61536469 -37.73921021 503.61354187 -38.73980713 503.61166382 C-52.7418953 503.56740178 -66.35801775 503.1534052 -80.109375 500.3046875 C-80.95838379 500.14371582 -81.80739258 499.98274414 -82.68212891 499.81689453 C-121.36384418 492.44051322 -169.10413148 474.99121627 -196.4757843 444.7973938 C-198.37446583 443.06245867 -199.96452507 442.40466283 -202.38354492 441.54638672 C-203.67962677 441.07931808 -203.67962677 441.07931808 -205.00189209 440.60281372 C-206.40667816 440.11106155 -206.40667816 440.11106155 -207.83984375 439.609375 C-208.81495911 439.26035126 -209.79007446 438.91132751 -210.79473877 438.55172729 C-212.88047678 437.80616462 -214.96757241 437.06439109 -217.05587769 436.3260498 C-220.29878384 435.17901233 -223.53772019 434.02139836 -226.77563477 432.86035156 C-230.99715668 431.34696785 -235.21965658 429.83638808 -239.44335938 428.32910156 C-246.1550559 425.93254376 -252.86025073 423.52054297 -259.546875 421.0546875 C-260.44108154 420.7335498 -261.33528809 420.41241211 -262.2565918 420.08154297 C-273.85268219 415.78093035 -282.01247292 409.19328975 -288.109375 398.3046875 C-295.24777101 380.14779173 -286.12255062 362.7720834 -278.91967773 346.15795898 C-275.99160018 339.46105127 -272.94009807 332.82584197 -269.83203125 326.2109375 C-266.87485899 319.87672781 -264.17557787 313.44290356 -261.484375 306.9921875 C-258.18497928 299.12403789 -254.83579594 291.29002628 -251.234375 283.5546875 C-250.71689697 282.42099731 -250.71689697 282.42099731 -250.18896484 281.2644043 C-248.33698741 277.35303154 -246.36029115 274.35323052 -243.47558594 271.08837891 C-240.27899774 266.91499195 -238.0875257 262.01749404 -235.671875 257.3671875 C-230.85391568 248.26402089 -225.88345987 239.30515177 -220.546875 230.4921875 C-219.97590088 229.53900635 -219.40492676 228.5858252 -218.81665039 227.60375977 C-215.94543425 222.91278869 -213.1070677 219.120075 -209.109375 215.3046875 C-207.40425571 213.10050891 -205.84761825 210.80669116 -204.296875 208.4921875 C-203.89017578 207.89470703 -203.48347656 207.29722656 -203.06445312 206.68164062 C-202.07457797 205.22594186 -201.09127765 203.76577576 -200.109375 202.3046875 C-201.22054687 201.7478125 -202.33171875 201.1909375 -203.4765625 200.6171875 C-212.06205773 196.24377275 -219.97224949 191.87576513 -227.109375 185.3046875 C-227.96015625 184.53382813 -228.8109375 183.76296875 -229.6875 182.96875 C-235.63076867 177.32798303 -240.09686418 171.43461057 -244.109375 164.3046875 C-244.57085937 163.50417969 -245.03234375 162.70367187 -245.5078125 161.87890625 C-253.06166333 147.89283698 -255.60913336 132.66423782 -251.2109375 117.25 C-246.31478058 104.15885704 -237.69428243 94.34687317 -225.109375 88.3046875 C-214.544385 83.87509534 -202.71640227 81.95417247 -191.671875 85.8671875 C-184.04098172 89.5051715 -178.67540543 94.57942413 -175.12890625 102.27734375 C-173.64428889 106.6856903 -172.84417721 111.17161141 -172.18432617 115.77124023 C-171.58624327 119.72730439 -170.85796946 122.34349457 -168.109375 125.3046875 C-168.02300781 124.09296875 -167.93664062 122.88125 -167.84765625 121.6328125 C-165.32725786 90.14052981 -154.68146079 61.64894398 -133.109375 38.3046875 C-132.61453613 37.76070312 -132.11969727 37.21671875 -131.60986328 36.65625 C-114.54187719 18.06638212 -93.51141678 8.19345576 -70.34765625 -0.81103516 C-66.46395867 -2.34536681 -62.6362187 -4.01022462 -58.8125 -5.6875 C-39.00951786 -13.07069276 -18.41589954 -8.87712523 0 0 Z " fill="#020101" transform="translate(292.109375,8.6953125)"/>
<path d="M0 0 C2.5378324 1.91616183 4.94295319 3.94214531 7.36328125 6.00390625 C16.67006233 13.04948422 27.83262534 16.40439097 39.375 16.25 C40.49297974 16.23876099 40.49297974 16.23876099 41.63354492 16.22729492 C51.14143151 16.04224418 58.71418807 13.95217551 67.43359375 10.12109375 C70 9 70 9 73 8 C73.8660559 14.02621483 74.18758396 19.90761442 74.23828125 25.9921875 C74.246353 26.93699982 74.25442474 27.88181213 74.26274109 28.85525513 C74.27650988 30.85042529 74.28726391 32.84561829 74.29516602 34.84082031 C74.30662014 36.84577529 74.32696608 38.85070139 74.35668945 40.85546875 C74.85398556 74.50491277 64.36614188 103.01393873 40.88696289 127.39233398 C30.95310361 137.50697807 18.71321768 148.1852011 3.80870056 149.14044189 C3.01581131 149.1472699 2.22292206 149.1540979 1.40600586 149.16113281 C0.50083725 149.17074036 -0.40433136 149.1803479 -1.33692932 149.19024658 C-2.30984421 149.19449646 -3.28275909 149.19874634 -4.28515625 149.203125 C-5.29662216 149.20882507 -6.30808807 149.21452515 -7.35020447 149.22039795 C-9.49281776 149.22984127 -11.63544554 149.23637928 -13.77807617 149.24023438 C-17.02614416 149.2498919 -20.27356612 149.2809021 -23.52148438 149.3125 C-25.60937127 149.31903545 -27.69726266 149.32428379 -29.78515625 149.328125 C-30.74390152 149.3404718 -31.70264679 149.3528186 -32.69044495 149.36553955 C-48.43542931 149.3145791 -59.24688829 142.84985322 -71 133 C-71.61746094 132.51789063 -72.23492187 132.03578125 -72.87109375 131.5390625 C-78.42550202 127.10066698 -82.67426092 121.60572604 -87 116 C-87.60972656 115.21753906 -88.21945313 114.43507813 -88.84765625 113.62890625 C-101.91097742 95.98300772 -110.40049997 73.23662525 -110.23046875 51.2421875 C-110.23001053 50.2542923 -110.22955231 49.26639709 -110.2290802 48.24856567 C-110.22608033 46.17627753 -110.21826282 44.10399118 -110.20581055 42.03173828 C-110.18750896 38.87654554 -110.18530164 35.72164668 -110.18554688 32.56640625 C-110.18063192 30.54166415 -110.1748037 28.51692403 -110.16796875 26.4921875 C-110.16685593 25.55865448 -110.1657431 24.62512146 -110.16459656 23.66329956 C-110.1264647 18.35535685 -109.76893126 13.25327703 -109 8 C-107.62328125 8.61488281 -107.62328125 8.61488281 -106.21875 9.2421875 C-104.97931194 9.78678907 -103.73972025 10.33104111 -102.5 10.875 C-101.2934375 11.40867188 -100.086875 11.94234375 -98.84375 12.4921875 C-86.08435568 17.71973405 -69.81770116 18.29548821 -57 13 C-50.28400617 10.06317558 -43.9524341 6.99736193 -38.25 2.3125 C-26.47894747 -7.31244903 -13.04679966 -7.38666011 0 0 Z " fill="#736C76" transform="translate(274,198)"/>
<path d="M0 0 C3.36472071 1.4054116 5.93760796 3.50616055 8.71826172 5.83300781 C46.73492093 37.61924286 95.82871107 51.92639896 145 49 C154.08107822 48.15522043 163.04678477 46.71911556 172 45 C172.78648926 44.85046875 173.57297852 44.7009375 174.38330078 44.546875 C204.69049021 38.51753775 234.06663111 22.63555522 257.1875 2.375 C260 0 260 0 262 0 C262 0.66 262 1.32 262 2 C262.59095459 2.2671582 263.18190918 2.53431641 263.79077148 2.80957031 C267.47234611 4.79336497 270.13276292 7.80505141 273.0625 10.75 C273.68705078 11.3584375 274.31160156 11.966875 274.95507812 12.59375 C279.59035132 17.22407627 282.67979693 21.16391565 283.4375 27.875 C283.19361113 33.20085233 281.08123424 37.85058472 277.36791992 41.68554688 C275.42582799 43.32045153 273.43435847 44.82806434 271.375 46.3125 C270.62935791 46.86446045 269.88371582 47.4164209 269.11547852 47.98510742 C256.20857004 57.38260902 242.46358725 65.26991086 228 72 C226.33130859 72.78117187 226.33130859 72.78117187 224.62890625 73.578125 C202.31471944 83.56562911 179.19498079 89.16176186 155 92 C153.40285156 92.20109375 153.40285156 92.20109375 151.7734375 92.40625 C134.27476557 94.26451605 116.4023021 93.26237109 99 91 C98.23977539 90.90879883 97.47955078 90.81759766 96.69628906 90.72363281 C59.99410833 86.24775711 26.00722238 71.17744653 -4 50 C-4.65645508 49.53883789 -5.31291016 49.07767578 -5.98925781 48.60253906 C-7.79965433 47.3168681 -9.59078154 46.00919097 -11.375 44.6875 C-12.37273437 43.94886719 -13.37046875 43.21023438 -14.3984375 42.44921875 C-17.99996793 39.05858875 -20.39532005 35.53131538 -21.56640625 30.62890625 C-21.54989654 21.89527216 -16.64829159 16.28062271 -10.68164062 10.3203125 C-10.06482422 9.71960938 -9.44800781 9.11890625 -8.8125 8.5 C-8.18408203 7.86835938 -7.55566406 7.23671875 -6.90820312 6.5859375 C-2.26767113 2 -2.26767113 2 0 2 C0 1.34 0 0.68 0 0 Z " fill="#E0959A" transform="translate(125,404)"/>
<path d="M0 0 C3.00497779 0.73249938 4.17484714 2.06055748 6.03515625 4.49609375 C7.23714205 10.29878381 6.82452737 15.98333328 3.78515625 21.12109375 C1.88763095 23.89710298 0.16529822 25.25359465 -2.96484375 26.49609375 C-4.11984375 26.61984375 -5.27484375 26.74359375 -6.46484375 26.87109375 C-10.39202473 27.57237607 -11.66940056 28.28247329 -13.96484375 31.49609375 C-13.96484375 32.81609375 -13.96484375 34.13609375 -13.96484375 35.49609375 C-13.37058594 35.51591309 -12.77632812 35.53573242 -12.1640625 35.55615234 C-9.43059956 35.65233368 -6.69780572 35.76162932 -3.96484375 35.87109375 C-3.03027344 35.90203125 -2.09570312 35.93296875 -1.1328125 35.96484375 C3.20274189 36.14675512 7.25922603 36.42990062 11.4609375 37.5546875 C16.57583445 38.90188987 20.29600555 38.09148882 25.44213867 36.97290039 C28.10079948 36.48402321 30.63612644 36.29020608 33.3359375 36.1796875 C34.31240234 36.13779297 35.28886719 36.09589844 36.29492188 36.05273438 C37.30232422 36.01341797 38.30972656 35.97410156 39.34765625 35.93359375 C40.37439453 35.89041016 41.40113281 35.84722656 42.45898438 35.80273438 C44.98425194 35.6970255 47.50961187 35.59492907 50.03515625 35.49609375 C49.76859053 32.56165973 49.76859053 32.56165973 49.03515625 29.49609375 C46.09341094 27.1940599 46.09341094 27.1940599 42.16015625 27.12109375 C38.05517836 26.67670165 35.93378161 25.56035484 33.03515625 22.49609375 C29.56481507 17.70941626 29.647961 13.00706266 29.5390625 7.30078125 C30.16155665 3.78148361 31.19477666 2.61392064 34.03515625 0.49609375 C36.94300506 -0.21272928 38.97769525 0.15637586 42.03515625 0.49609375 C43.76953125 1.73046875 43.76953125 1.73046875 45.03515625 3.49609375 C45.328125 5.7578125 45.328125 5.7578125 45.22265625 8.18359375 C45.18205078 9.39595703 45.18205078 9.39595703 45.140625 10.6328125 C45.08841797 11.55513672 45.08841797 11.55513672 45.03515625 12.49609375 C46.76765625 12.55796875 46.76765625 12.55796875 48.53515625 12.62109375 C54.39770699 13.35910989 58.65852593 16.646877 62.390625 21.12109375 C64.82145747 24.63132115 66.1463428 27.3000871 65.74609375 31.60546875 C65.39011532 35.4632815 65.30053668 38.68471459 66.03515625 42.49609375 C68.51250857 45.00922011 70.94642221 46.3255307 74.078125 47.93359375 C81.36050373 51.78161421 87.42439679 59.14231258 91.03515625 66.49609375 C91.61756751 70.44354786 91.64519808 72.39220853 89.72265625 75.87109375 C87.10925262 78.38770465 84.49493535 78.62978959 81.0234375 78.8125 C80.26611328 78.85439453 79.50878906 78.89628906 78.72851562 78.93945312 C77.94283203 78.97876953 77.15714844 79.01808594 76.34765625 79.05859375 C75.55037109 79.10177734 74.75308594 79.14496094 73.93164062 79.18945312 C71.96634178 79.29536743 70.00077129 79.39621926 68.03515625 79.49609375 C68.25171875 80.34880859 68.25171875 80.34880859 68.47265625 81.21875 C70.21463919 88.46491514 71.17849743 94.1826321 67.49609375 100.91796875 C64.31237616 104.35706476 60.70078938 105.43006321 56.1270752 105.8837738 C54.63367832 105.90446765 53.13999868 105.90894872 51.64648438 105.90014648 C50.41604652 105.91044136 50.41604652 105.91044136 49.16075134 105.92094421 C46.46245782 105.93917262 43.76474784 105.93538088 41.06640625 105.9296875 C39.18363253 105.93425078 37.30086047 105.93955679 35.41809082 105.9455719 C31.47738872 105.9544949 27.53688938 105.9520886 23.59619141 105.94213867 C18.55217817 105.9306424 13.50886431 105.95087466 8.46494293 105.98005581 C4.57866998 105.99842058 0.69256462 105.99812493 -3.19374084 105.99241829 C-5.05323773 105.99226515 -6.91274603 105.99830343 -8.77220154 106.01070976 C-11.37396895 106.0256256 -13.97444428 106.01493943 -16.57617188 105.99780273 C-17.33998672 106.0074707 -18.10380157 106.01713867 -18.89076233 106.02709961 C-24.05922882 105.95599046 -26.98023225 104.75060054 -30.96484375 101.49609375 C-34.94005146 96.49502599 -33.96960622 91.43810636 -33.38671875 85.421875 C-32.96484375 82.49609375 -32.96484375 82.49609375 -31.96484375 79.49609375 C-33.20621094 79.48191406 -34.44757813 79.46773438 -35.7265625 79.453125 C-37.36852618 79.40621175 -39.01045212 79.35796443 -40.65234375 79.30859375 C-41.87727539 79.29989258 -41.87727539 79.29989258 -43.12695312 79.29101562 C-47.49997567 79.13167472 -49.44022076 78.90255841 -53 76.14453125 C-54.96484375 73.49609375 -54.96484375 73.49609375 -55.71484375 70.30859375 C-54.10837322 62.14236855 -47.42268616 54.60803784 -40.96484375 49.49609375 C-38.98658478 48.47350251 -37.00736863 47.45276148 -35.02734375 46.43359375 C-32.10106743 44.83748154 -32.10106743 44.83748154 -29.96484375 42.49609375 C-29.331821 38.81225304 -29.52447756 35.59511831 -29.81640625 31.875 C-30.02443137 27.13969131 -28.89251555 24.16635286 -25.96484375 20.49609375 C-21.88428706 16.27352233 -17.76702393 12.60386991 -11.71484375 12.37109375 C-10.35359375 12.43296875 -10.35359375 12.43296875 -8.96484375 12.49609375 C-9.01705078 11.57376953 -9.01705078 11.57376953 -9.0703125 10.6328125 C-9.09738281 9.82457031 -9.12445313 9.01632813 -9.15234375 8.18359375 C-9.20455078 6.98283203 -9.20455078 6.98283203 -9.2578125 5.7578125 C-8.96484375 3.49609375 -8.96484375 3.49609375 -7.69921875 1.73046875 C-5.27295242 0.00366659 -2.90811638 0.08404961 0 0 Z " fill="#010101" transform="translate(237.96484375,216.50390625)"/>
<path d="M0 0 C11.3980213 8.46990893 19.28070551 19.4940316 22.515625 33.43359375 C24.15143049 49.29981404 21.40659732 64.11953497 11.58203125 76.9609375 C2.33327689 87.92425595 -9.34799245 94.12076052 -23.484375 96.43359375 C-39.0638433 97.63352755 -52.616086 93.4380575 -64.80078125 83.5546875 C-74.4000842 74.53826443 -80.9314305 61.64329238 -81.72265625 48.46484375 C-82.13229772 31.83119583 -78.30340505 18.52805914 -66.671875 6.12109375 C-48.2311795 -11.25366559 -21.33635787 -13.45264073 0 0 Z " fill="#F6ECAC" transform="translate(285.484375,23.56640625)"/>
<path d="M0 0 C2.80770955 1.52518028 5.20820174 3.51521816 7.66601562 5.53540039 C15.44756031 11.74001386 23.84848341 16.600024 32.79101562 20.97290039 C32.41589844 21.38540039 32.04078125 21.79790039 31.65429688 22.22290039 C23.32437887 31.54668408 23.32437887 31.54668408 21.37695312 43.51586914 C22.34283816 49.24739451 24.5556932 53.34838491 29.22851562 56.84790039 C31.3770713 58.23406534 33.26391082 59.15794634 35.66601562 60.09790039 C36.36726563 60.38665039 37.06851563 60.67540039 37.79101562 60.97290039 C38.12101562 61.96290039 38.45101562 62.95290039 38.79101562 63.97290039 C41.52652439 64.84084081 44.11913741 65.51326866 46.91601562 66.09790039 C47.66367188 66.26676758 48.41132813 66.43563477 49.18164062 66.60961914 C55.23810009 67.94963718 61.32317502 69.09060591 67.54101562 69.22290039 C68.27835937 69.24868164 69.01570313 69.27446289 69.77539062 69.30102539 C72.38595237 68.87605022 73.23324526 68.08217952 74.79101562 65.97290039 C75.34551571 61.4480888 75.34551571 61.4480888 73.74804688 57.32836914 C70.79000139 55.27958315 67.59419097 55.14066053 64.10351562 54.78540039 C63.40162109 54.70354492 62.69972656 54.62168945 61.9765625 54.53735352 C60.24934836 54.33760766 58.5203156 54.15370051 56.79101562 53.97290039 C56.79101562 47.94349316 62.70182288 43.41602101 66.70727539 39.30615234 C73.88871979 32.68572614 80.06965403 30.52558189 89.77929688 30.72216797 C101.84466242 32.13632031 109.17181336 41.24973927 116.42773438 50.22875977 C117.10255859 51.09210938 117.10255859 51.09210938 117.79101562 51.97290039 C113.4984005 54.25335218 109.45874915 54.6956797 104.66601562 55.31274414 C101.59488022 56.01793692 100.01117383 56.75274218 97.79101562 58.97290039 C97.14772498 63.60597682 97.14772498 63.60597682 99.06567383 67.67260742 C102.77107034 70.46515614 107.97405192 69.22633279 112.33251953 68.6184082 C114.93587491 68.16268508 117.51770622 67.64411631 120.10351562 67.09790039 C121.42319336 66.83686523 121.42319336 66.83686523 122.76953125 66.57055664 C130.41318239 65.17785884 130.41318239 65.17785884 135.79101562 59.97290039 C137.56054688 59.16430664 137.56054688 59.16430664 139.60351562 58.53540039 C144.76743639 56.71118925 147.79876243 54.68368176 150.60351562 49.84790039 C152.28994512 45.25924339 152.70256706 40.78059907 151.79101562 35.97290039 C149.07028331 30.33191539 144.78764473 25.73889762 140.79101562 20.97290039 C141.92796875 20.37864258 143.06492187 19.78438477 144.23632812 19.17211914 C152.92343642 14.53767248 160.9436384 9.79677593 168.37353516 3.29003906 C169.97070312 1.92993164 169.97070312 1.92993164 172.79101562 -0.02709961 C176.1762699 0.29516907 177.84006311 1.65348415 180.18261719 4.02392578 C181.1431601 4.98480858 181.1431601 4.98480858 182.12310791 5.96510315 C182.80242371 6.6599028 183.4817395 7.35470245 184.18164062 8.07055664 C184.88625427 8.77941513 185.59086792 9.48827362 186.3168335 10.21861267 C188.56536347 12.48393319 190.80323801 14.75946248 193.04101562 17.03540039 C194.5637627 18.57319374 196.08719217 20.1103117 197.61132812 21.64672852 C201.34584372 25.41431841 205.07166412 29.19034304 208.79101562 32.97290039 C207.86727635 34.08096343 206.93905412 35.18528993 206.0090332 36.28808594 C205.23442497 37.21115791 205.23442497 37.21115791 204.44416809 38.15287781 C201.76160918 41.10621569 198.68642746 43.43229261 195.47851562 45.78540039 C194.78701416 46.29675537 194.0955127 46.80811035 193.38305664 47.33496094 C168.23690776 65.58989386 139.53807457 76.71946743 108.79101562 80.97290039 C108.07324951 81.0745752 107.3554834 81.17625 106.6159668 81.28100586 C88.77587606 83.55071692 70.37312033 82.53493976 52.79101562 78.97290039 C52.05737793 78.82836426 51.32374023 78.68382812 50.56787109 78.53491211 C17.84615864 71.93796941 -10.62891072 56.34483504 -35.20898438 33.97290039 C-29.59538489 27.28143821 -23.58321095 21.05738059 -17.44042969 14.85424805 C-16.19386098 13.59095788 -14.95270467 12.3223059 -13.71679688 11.04858398 C-11.92138822 9.19872596 -10.1103623 7.36557689 -8.29492188 5.53540039 C-7.7437973 4.96160645 -7.19267273 4.3878125 -6.62484741 3.79663086 C-2.77312162 -0.03402039 -2.77312162 -0.03402039 0 0 Z " fill="#E5ADB3" transform="translate(169.208984375,357.027099609375)"/>
<path d="M0 0 C4.41049692 0.72477958 8.49150243 2.15393115 12.671875 3.6875 C13.39489807 3.95006592 14.11792114 4.21263184 14.862854 4.4831543 C16.3830022 5.03617451 17.90250289 5.5909775 19.42138672 6.14746094 C21.75443801 7.00162482 24.08992526 7.84885282 26.42578125 8.6953125 C27.90379518 9.2339654 29.38166497 9.77301396 30.859375 10.3125 C31.91085724 10.69378052 31.91085724 10.69378052 32.98358154 11.08276367 C37.88470993 12.88470993 37.88470993 12.88470993 39 14 C39.15786308 15.85174706 39.25107356 17.7090911 39.31640625 19.56640625 C39.35830078 20.69111328 39.40019531 21.81582031 39.44335938 22.97460938 C39.48267578 24.15861328 39.52199219 25.34261719 39.5625 26.5625 C39.60568359 27.75037109 39.64886719 28.93824219 39.69335938 30.16210938 C39.79983546 33.10794784 39.90184841 36.0538743 40 39 C37.0703125 37.92578125 34.140625 36.8515625 31.2109375 35.77734375 C27.66557664 34.91903863 25.48616059 34.96613862 22 36 C19.68717413 39.46923881 19.57521414 40.92205575 20 45 C22.18592969 47.83922112 24.35548643 48.62891912 27.74609375 49.5859375 C42.44613034 54.14352885 42.44613034 54.14352885 45.37402344 57.64160156 C47.20314524 61.24622271 47.78663928 65.00101043 48 69 C43.02788192 67.61432775 38.1712297 66.08962946 33.3515625 64.2421875 C32.52374268 63.92644775 31.69592285 63.61070801 30.84301758 63.28540039 C29.1801477 62.64608187 27.52095542 61.99709859 25.8659668 61.33764648 C21.07578108 59.50056427 17.21920439 58.52369729 12 59 C9.93597315 59.98048938 9.93597315 59.98048938 9 62 C8.49976858 65.35869671 8.41070338 67.18155494 10.42333984 69.97680664 C14.15412209 72.90621658 18.1781264 74.01181257 22.6640625 75.43359375 C24.61130639 76.08862698 26.55790132 76.74559198 28.50390625 77.40429688 C31.55232105 78.4239357 34.60274699 79.43043541 37.66650391 80.40307617 C52.45404223 85.13110542 60.93266895 89.24619808 68.23291016 103.38842773 C68.4860498 103.92024658 68.73918945 104.45206543 69 105 C67.62354341 106.53839266 66.22304968 108.05530581 64.8125 109.5625 C64.03519531 110.40941406 63.25789063 111.25632812 62.45703125 112.12890625 C60 114 60 114 57.62890625 113.9375 C53.24900885 112.37557522 48.90567409 110.74033292 44.5703125 109.05859375 C40.82264446 107.94741428 37.88628812 107.68966987 34 108 C31.83333333 109.5 31.83333333 109.5 31 112 C30.75949193 115.05890142 30.75949193 115.05890142 32 118 C36.39010833 121.84134479 41.49813471 123.38611952 47 125 C45.22546237 128.7840597 43.27827055 131.33164025 40 134 C36.45332383 133.61743557 33.23126268 132.45824386 29.89135742 131.2409668 C28.89286774 130.8789769 27.89437805 130.516987 26.8656311 130.14402771 C25.78977753 129.74974075 24.71392395 129.3554538 23.60546875 128.94921875 C22.47676361 128.5386171 21.34805847 128.12801544 20.18515015 127.70497131 C16.51789 126.36955652 12.85264149 125.02871753 9.1875 123.6875 C7.31049976 123.00274491 5.4334994 122.31799011 3.55639935 121.63350868 C-15.00335384 114.86448674 -33.53152844 108.01439407 -52 101 C-49.69832356 93.63154589 -46.7727153 86.66907641 -43.625 79.625 C-43.15578125 78.56539063 -42.6865625 77.50578125 -42.203125 76.4140625 C-39.17614401 69.59081253 -36.1002872 62.7902203 -33 56 C-29.82702108 56.60198552 -27.07535552 57.31509112 -24.125 58.625 C-20.11849173 60.1729691 -17.20035926 60.17610059 -13 59 C-10.68717413 55.53076119 -10.57521414 54.07794425 -11 50 C-13.23406368 47.1015579 -15.81582906 46.08235009 -19.1875 44.8125 C-20.08855469 44.46832031 -20.98960938 44.12414062 -21.91796875 43.76953125 C-22.94857422 43.38861328 -22.94857422 43.38861328 -24 43 C-16.99402072 28.20476426 -9.08483718 13.62725577 0 0 Z " fill="#DE7E84" transform="translate(89,241)"/>
<path d="M0 0 C5.36840488 11.56374602 10.7215188 23.13146792 15.6875 34.875 C16.02587891 35.67010986 16.36425781 36.46521973 16.71289062 37.28442383 C19 42.75015588 19 42.75015588 19 45 C18.07302307 45.33587128 18.07302307 45.33587128 17.12731934 45.67852783 C9.88769444 48.30210113 2.64900957 50.92825862 -4.5890274 53.55620956 C-5.85891801 54.01725121 -7.12883059 54.47823234 -8.39876556 54.93915176 C-25.29640479 61.0722418 -42.1824025 67.23130504 -58.97070312 73.65917969 C-60.11732422 74.09520508 -61.26394531 74.53123047 -62.4453125 74.98046875 C-63.40969238 75.35067139 -64.37407227 75.72087402 -65.36767578 76.10229492 C-67.92844484 76.97559745 -70.31481599 77.66000134 -73 78 C-75.01953125 76.63671875 -75.01953125 76.63671875 -76.8125 74.6875 C-77.41707031 74.05199219 -78.02164062 73.41648437 -78.64453125 72.76171875 C-80 71 -80 71 -80 69 C-79.09636719 68.68546875 -78.19273437 68.3709375 -77.26171875 68.046875 C-76.08222656 67.61890625 -74.90273438 67.1909375 -73.6875 66.75 C-72.51574219 66.33234375 -71.34398437 65.9146875 -70.13671875 65.484375 C-66.95440604 63.97842378 -65.62878921 63.07924383 -64 60 C-64.22037628 56.32706204 -64.36966546 54.63033454 -67 52 C-74.07011853 51.37256524 -78.96812094 53.25466249 -85.3515625 56.04296875 C-90.45331325 58.14426456 -90.45331325 58.14426456 -93.25 57.40625 C-95.21626032 55.82621938 -96.99957584 54.19274816 -98.75 52.375 C-99.36359375 51.74335938 -99.9771875 51.11171875 -100.609375 50.4609375 C-101.06828125 49.97882813 -101.5271875 49.49671875 -102 49 C-101.57098389 48.29302979 -101.14196777 47.58605957 -100.69995117 46.85766602 C-99.60128359 45.01077473 -98.55504525 43.13121346 -97.57543945 41.21850586 C-90.49771992 29.48851725 -78.57804558 26.77629014 -66.1875 22.5625 C-63.89911701 21.75318535 -61.61201268 20.94024653 -59.32617188 20.1237793 C-54.74147175 18.49194203 -50.15035346 16.88076527 -45.55224609 15.28710938 C-39.59108598 13.21625869 -33.65952883 11.07265431 -27.73828125 8.890625 C-26.06033054 8.27393149 -24.382353 7.65731099 -22.7043457 7.04077148 C-21.91758453 6.75160858 -21.13082336 6.46244568 -20.32022095 6.16452026 C-16.67499848 4.82593938 -13.02820261 3.49244147 -9.375 2.17578125 C-8.20710938 1.75208252 -7.03921875 1.32838379 -5.8359375 0.8918457 C-3 0 -3 0 0 0 Z " fill="#DE7E84" transform="translate(456,297)"/>
<path d="M0 0 C0.8660559 6.02621483 1.18758396 11.90761442 1.23828125 17.9921875 C1.246353 18.93699982 1.25442474 19.88181213 1.26274109 20.85525513 C1.27650988 22.85042529 1.28726391 24.84561829 1.29516602 26.84082031 C1.30662014 28.84577529 1.32696608 30.85070139 1.35668945 32.85546875 C1.85398556 66.50491277 -8.63385812 95.01393873 -32.11303711 119.39233398 C-42.04689639 129.50697807 -54.28678232 140.1852011 -69.19129944 141.14044189 C-69.98418869 141.1472699 -70.77707794 141.1540979 -71.59399414 141.16113281 C-72.49916275 141.17074036 -73.40433136 141.1803479 -74.33692932 141.19024658 C-75.30984421 141.19449646 -76.28275909 141.19874634 -77.28515625 141.203125 C-78.29662216 141.20882507 -79.30808807 141.21452515 -80.35020447 141.22039795 C-82.49281776 141.22984127 -84.63544554 141.23637928 -86.77807617 141.24023438 C-90.02614416 141.2498919 -93.27356612 141.2809021 -96.52148438 141.3125 C-98.60937127 141.31903545 -100.69726266 141.32428379 -102.78515625 141.328125 C-103.74390152 141.3404718 -104.70264679 141.3528186 -105.69044495 141.36553955 C-116.99147714 141.32896246 -128.39173767 138.52911137 -136.62939453 130.40771484 C-137.41169434 129.61316895 -138.19399414 128.81862305 -139 128 C-137.50388184 127.98598145 -137.50388184 127.98598145 -135.97753906 127.97167969 C-132.21978701 127.93132047 -128.46281489 127.86544405 -124.70556641 127.79248047 C-123.09010968 127.76453361 -121.47452288 127.74319062 -119.85888672 127.72900391 C-107.69106404 127.61584994 -96.86187379 126.59548579 -86.3125 119.8125 C-85.50425781 119.30332031 -84.69601562 118.79414063 -83.86328125 118.26953125 C-82.0709283 117.13299874 -82.0709283 117.13299874 -81 116 C-78.70661286 115.87763045 -76.40972026 115.82015521 -74.11328125 115.7890625 C-72.68553582 115.76097313 -71.25780161 115.73230855 -69.83007812 115.703125 C-67.57658449 115.66200553 -65.32329566 115.62512691 -63.06958008 115.59863281 C-60.89620339 115.57085803 -58.72378377 115.52496652 -56.55078125 115.4765625 C-54.59652222 115.4468335 -54.59652222 115.4468335 -52.6027832 115.41650391 C-47.65569296 114.84458983 -44.23602807 113.51513118 -41.0625 109.625 C-39.09754636 102.92104054 -40.24917817 95.69463729 -42 89 C-40.74703125 88.95101562 -39.4940625 88.90203125 -38.203125 88.8515625 C-36.55206179 88.77651417 -34.90102119 88.70096723 -33.25 88.625 C-32.425 88.5940625 -31.6 88.563125 -30.75 88.53125 C-29.95078125 88.49257813 -29.1515625 88.45390625 -28.328125 88.4140625 C-27.5949707 88.3826416 -26.86181641 88.3512207 -26.10644531 88.31884766 C-23.7121041 87.95642188 -22.06004147 87.26352952 -20 86 C-18.43080972 82.86161944 -18.18441686 80.35828353 -19 77 C-23.30218906 69.31098125 -29.28066706 63.56226939 -36 58 C-36.66 57.34 -37.32 56.68 -38 56 C-37.566875 54.88625 -37.13375 53.7725 -36.6875 52.625 C-32.00707144 38.33854902 -31.58048829 23.88489708 -32 9 C-30.36804688 8.76216797 -30.36804688 8.76216797 -28.703125 8.51953125 C-19.67171482 7.11645372 -8.20180808 0 0 0 Z " fill="#655D65" transform="translate(347,206)"/>
<path d="M0 0 C7.86584131 4.58388683 13.9910263 11.47994129 16.5234375 20.328125 C18.47172962 31.25133656 17.19014969 40.2650367 12 50 C11.33097656 51.29357422 11.33097656 51.29357422 10.6484375 52.61328125 C2.12677264 67.91895305 -10.41293965 76.67485982 -25.81787109 83.94873047 C-28.04310644 85.0207671 -30.23416804 86.14613542 -32.42578125 87.28515625 C-40.59794913 91.45492507 -46.58858058 94.06044162 -56 93 C-56 89.37 -56 85.74 -56 82 C-54.948125 82.061875 -53.89625 82.12375 -52.8125 82.1875 C-48.77539551 81.98895388 -47.11637422 81.49309937 -44 79 C-41.65666939 75.76397201 -41.6155759 72.91543066 -42 69 C-43.85720059 65.98965024 -43.85720059 65.98965024 -46.375 63.25 C-47.18710937 62.30640625 -47.99921875 61.3628125 -48.8359375 60.390625 C-50.18959792 58.89524562 -51.57371881 57.42628119 -53 56 C-54.3793915 52.04077358 -54.25310098 48.98756299 -53 45 C-50.28287583 41.44085769 -47.02698393 38.44737846 -43.68774414 35.47973633 C-36.96563486 29.46427484 -33.8187859 24.11687108 -33.0625 15 C-32.20718876 8.11326982 -30.74030703 3.26460713 -25.43359375 -1.3671875 C-17.31393372 -6.83053184 -8.18339106 -3.8980058 0 0 Z " fill="#D62D3C" transform="translate(440,112)"/>
<path d="M0 0 C5.08818319 4.07490474 6.48592165 9.13726174 7.32421875 15.3359375 C8.77421134 25.93517909 12.64416943 31.71072264 20.57421875 38.7734375 C28.92357316 46.73953961 28.92357316 46.73953961 29.38671875 52.2109375 C28.37948724 59.20909809 22.65312186 63.78061602 17.82421875 68.4609375 C16.41421211 71.28095077 16.57873424 73.33101005 16.82421875 76.4609375 C18.08525774 79.23522327 19.13511789 80.94411185 21.57421875 82.7734375 C24.6927846 83.72633262 27.586567 83.58546257 30.82421875 83.4609375 C30.82421875 87.0909375 30.82421875 90.7209375 30.82421875 94.4609375 C21.20207821 95.22893644 14.59477011 93.25669501 6.13305664 88.91894531 C4.27193046 87.96616526 2.39579 87.05111346 0.51367188 86.140625 C-19.54656904 76.26971542 -32.6822325 63.23854437 -41.17578125 42.4609375 C-43.65791163 35.01454636 -43.15430347 24.72843201 -40.2109375 17.4453125 C-35.24318021 7.92221551 -27.7348258 1.81821561 -17.6875 -1.84375 C-11.14807524 -3.65404177 -6.0455759 -2.96575422 0 0 Z " fill="#D94953" transform="translate(97.17578125,110.5390625)"/>
<path d="M0 0 C1.87499703 4.22181205 3.72515664 8.45338852 5.55419922 12.6953125 C6.17820179 14.13338554 6.80861107 15.56869777 7.44580078 17.00097656 C15.08366401 34.1951616 15.08366401 34.1951616 12.33959961 43.15673828 C9.25509629 50.31412164 3.77350538 54.48298971 -3.31762695 57.37768555 C-5.36878106 58.14616941 -7.4260715 58.89841558 -9.48828125 59.63671875 C-10.58665817 60.0428389 -11.6850351 60.44895905 -12.81669617 60.86738586 C-16.31031597 62.15483364 -19.81122508 63.42104036 -23.3125 64.6875 C-25.65347636 65.54882249 -27.99397647 66.41144054 -30.33398438 67.27539062 C-39.82628341 70.76203387 -49.27471909 74.21230361 -59 77 C-60.28317892 73.15046324 -60.06643637 70.05261865 -60 66 C-58.79601562 65.52949219 -57.59203125 65.05898438 -56.3515625 64.57421875 C-54.77584424 63.9458073 -53.20033411 63.31687383 -51.625 62.6875 C-50.8309375 62.37876953 -50.036875 62.07003906 -49.21875 61.75195312 C-48.45820313 61.44580078 -47.69765625 61.13964844 -46.9140625 60.82421875 C-46.2123291 60.54666748 -45.5105957 60.26911621 -44.78759766 59.9831543 C-42.66206608 58.99332241 -42.66206608 58.99332241 -41 56 C-40.76685725 52.89143 -41.00471256 50.98586231 -42 48 C-48.45484036 46.72782542 -52.23457972 47.35678946 -58.1875 50 C-64.94089333 52.94785936 -64.94089333 52.94785936 -68.5390625 53.125 C-72.53954355 51.29620866 -75.20160947 48.16997365 -78.1875 45 C-79.42893627 43.70635974 -80.67233413 42.4145982 -81.91796875 41.125 C-82.73430786 40.26261719 -82.73430786 40.26261719 -83.56713867 39.3828125 C-84.97131996 37.88962437 -84.97131996 37.88962437 -87 37 C-87 35.02 -87 33.04 -87 31 C-80.52046293 28.01025245 -73.95207589 25.4223581 -67.24609375 22.98828125 C-66.22814224 22.61575729 -65.21019073 22.24323334 -64.16139221 21.85942078 C-60.92115532 20.67418693 -57.67942045 19.49312016 -54.4375 18.3125 C-51.26337564 17.15409418 -48.089593 15.99476307 -44.91616821 14.83444214 C-42.80528805 14.06291632 -40.69393991 13.29266967 -38.5821228 12.52371216 C-33.11616083 10.52856111 -27.66646161 8.49866567 -22.23486328 6.41162109 C-21.14206558 5.99373825 -20.04926788 5.57585541 -18.9233551 5.14530945 C-16.83918434 4.34611286 -14.7575936 3.54014453 -12.67906189 2.72639465 C-11.74348953 2.36833237 -10.80791718 2.01027008 -9.84399414 1.64135742 C-8.61792198 1.1646888 -8.61792198 1.1646888 -7.36708069 0.6783905 C-4.80687919 -0.05534721 -2.64969409 -0.12370845 0 0 Z " fill="#DA616C" transform="translate(482,356)"/>
<path d="M0 0 C6.40908861 2.10054165 12.76521876 4.32570101 19.10546875 6.625 C20.05600632 6.96873657 21.00654388 7.31247314 21.98588562 7.66662598 C25.05356178 8.77645365 28.12058698 9.88806532 31.1875 11 C32.22980774 11.37761475 33.27211548 11.75522949 34.3460083 12.14428711 C40.60787973 14.41292937 46.86879832 16.68418385 53.12896729 18.95751953 C55.79071103 19.92400655 58.45270081 20.88981266 61.11474609 21.85546875 C64.72785006 23.16660113 68.33981036 24.48082569 71.95059204 25.79833984 C73.84299675 26.48833127 75.73631047 27.17582793 77.62963867 27.86328125 C78.73927979 28.26933594 79.8489209 28.67539062 80.9921875 29.09375 C81.94464355 29.44115234 82.89709961 29.78855469 83.87841797 30.14648438 C86 31 86 31 87 32 C87.5625 34.625 87.5625 34.625 87 38 C85.26929497 39.92863141 83.38841816 41.44936647 81.3515625 43.05078125 C78.78376629 45.17923691 76.67018189 47.52563605 74.4375 50 C70.47173138 53.94556946 70.47173138 53.94556946 66.75 54.375 C62.15808707 52.69129859 57.59670344 50.94968684 53.0859375 49.05859375 C50.10316962 48.0353911 48.11354136 47.65405096 45 48 C42.47993156 49.43661311 42.47993156 49.43661311 41 52 C40.75161619 55.59471004 40.75161619 55.59471004 42 59 C45.64060488 61.63080206 49.62415609 63.12215935 53.8125 64.6875 C54.97394531 65.12449219 56.13539062 65.56148438 57.33203125 66.01171875 C58.21246094 66.33785156 59.09289062 66.66398437 60 67 C59.67 70.63 59.34 74.26 59 78 C51.9219535 75.93226508 44.96484118 73.64980615 38.0234375 71.1640625 C37.01334625 70.80283295 36.003255 70.44160339 34.96255493 70.06942749 C32.84264489 69.30955251 30.72329717 68.54810708 28.60449219 67.78515625 C25.37996712 66.62678438 22.15102155 65.4813521 18.921875 64.3359375 C16.851276 63.59194269 14.78095382 62.84717696 12.7109375 62.1015625 C11.7555307 61.76492584 10.8001239 61.42828918 9.81576538 61.08145142 C0.3205798 57.62786211 -7.10415723 53.67858761 -12.3125 44.75 C-15.03455034 33.86179863 -10.73051279 25.20979561 -6.5 15.375 C-5.87207545 13.87958649 -5.24575908 12.38349663 -4.62109375 10.88671875 C-3.0991685 7.24974536 -1.55573881 3.62263074 0 0 Z " fill="#DA616C" transform="translate(30,355)"/>
<path d="M0 0 C0.88156769 0.00343414 1.76313538 0.00686829 2.67141724 0.01040649 C15.63194946 0.06957226 28.48464431 0.22428156 41.3125 2.25 C42.68510986 2.46003662 42.68510986 2.46003662 44.08544922 2.67431641 C57.40999989 4.80403297 70.22776076 8.22095026 83.0625 12.3125 C83.74020447 12.52592041 84.41790894 12.73934082 85.1161499 12.95922852 C87.05609618 13.5752195 88.98964711 14.20791264 90.921875 14.84765625 C92.5920166 15.39691772 92.5920166 15.39691772 94.29589844 15.95727539 C99.05206008 17.99546541 102.34980205 21.06651165 105.625 25 C109.30417202 29.31127647 113.2595728 33.29181655 117.3125 37.25 C113.76987061 38.43087646 113.27028759 38.06267934 109.9375 36.6875 C89.33160974 28.86589244 67.52162916 24.55252898 45.75 21.5 C44.52228882 21.32658081 44.52228882 21.32658081 43.26977539 21.1496582 C29.82370767 19.39303969 16.29245665 19.04165387 2.75 19.0625 C1.64457352 19.06340637 1.64457352 19.06340637 0.51681519 19.06433105 C-12.30806334 19.09264395 -24.94981566 19.67431572 -37.6875 21.25 C-39.24911865 21.4353833 -39.24911865 21.4353833 -40.84228516 21.62451172 C-62.56749938 24.27471159 -83.82310549 29.02226885 -104.39868164 36.56005859 C-109.38428995 38.35107002 -109.38428995 38.35107002 -112.6875 37.25 C-111.87925781 36.45335937 -111.07101563 35.65671875 -110.23828125 34.8359375 C-109.15871829 33.76576205 -108.07929887 32.69544179 -107 31.625 C-106.46955078 31.10292969 -105.93910156 30.58085937 -105.39257812 30.04296875 C-102.81294002 27.47915664 -100.50369667 25.0083271 -98.29296875 22.1015625 C-78.73398708 0.69518077 -27.08284585 -0.17289303 0 0 Z " fill="#DD7D83" transform="translate(253.6875,134.75)"/>
<path d="M0 0 C0.91478119 0.00093658 1.82956238 0.00187317 2.77206421 0.00283813 C68.35911692 0.14830846 68.35911692 0.14830846 94.4375 13.1875 C94.4375 16.1575 94.4375 19.1275 94.4375 22.1875 C91.7530851 23.48592341 89.06527896 24.77632859 86.375 26.0625 C85.62283203 26.42730469 84.87066406 26.79210937 84.09570312 27.16796875 C73.57443661 32.17809566 62.48348505 34.34730935 51.046875 31.27734375 C44.62785648 28.71796585 39.0453267 25.17951223 33.4375 21.1875 C21.59282134 13.10414928 9.17338478 9.1717294 -5.24609375 11.6484375 C-13.39677717 13.86542339 -20.93229571 17.9740802 -27.5 23.25 C-37.95584834 31.45913712 -50.67180949 33.33020065 -63.5625 32.1875 C-67.82619726 30.97002247 -71.62720658 29.21261623 -75.5625 27.1875 C-76.54089844 26.71054688 -77.51929688 26.23359375 -78.52734375 25.7421875 C-80.88731968 24.58371404 -83.23004584 23.40016975 -85.5625 22.1875 C-85.5625 19.2175 -85.5625 16.2475 -85.5625 13.1875 C-78.63773125 10.32207845 -71.63621769 8.7205903 -64.3125 7.1875 C-63.07773926 6.92622314 -61.84297852 6.66494629 -60.57080078 6.39575195 C-50.28860941 4.25946106 -39.98650305 2.46546239 -29.5625 1.1875 C-28.87454346 1.09251221 -28.18658691 0.99752441 -27.4777832 0.8996582 C-18.36738465 -0.21377997 -9.16274468 -0.01204717 0 0 Z " fill="#443F44" transform="translate(251.5625,167.8125)"/>
<path d="M0 0 C10.19035576 7.15566437 16.30115858 17.33959503 18.55859375 29.49609375 C19.98651287 41.6130074 17.13138316 52.79345731 9.55859375 62.49609375 C8.87796875 63.46546875 8.19734375 64.43484375 7.49609375 65.43359375 C1.34629612 72.62412636 -8.41822771 77.5370369 -17.74951172 78.8112793 C-20.09374986 78.96744598 -22.404658 79.01446236 -24.75390625 78.99609375 C-25.57697266 78.99254883 -26.40003906 78.98900391 -27.24804688 78.98535156 C-34.25272122 78.79611016 -40.50653805 77.41145819 -46.44140625 73.49609375 C-48.70460528 70.98032765 -49.38421148 69.88828645 -49.87890625 66.49609375 C-49.44140625 63.49609375 -49.44140625 63.49609375 -47.87890625 61.12109375 C-44.50090247 58.86909123 -42.43828666 59.01371163 -38.44140625 59.49609375 C-37.51585937 59.99109375 -36.5903125 60.48609375 -35.63671875 60.99609375 C-28.79509267 64.20781064 -20.13616276 63.44436298 -13.06640625 61.05859375 C-6.44956516 57.97364148 -1.42082741 52.32146695 1.55859375 45.68359375 C3.90243051 37.84493437 3.44016751 30.54765628 0.05859375 23.12109375 C-3.45996902 16.78104196 -7.5349884 13.07179171 -14.23046875 10.37109375 C-21.34015157 8.43366194 -30.30171548 7.96702609 -37.06640625 11.24609375 C-38.7766889 12.21942347 -38.7766889 12.21942347 -40.44140625 13.49609375 C-41.26898438 14.08777344 -42.0965625 14.67945312 -42.94921875 15.2890625 C-47.8464186 19.62592443 -50.96619981 26.08681453 -51.8671875 32.55078125 C-51.95542589 34.41135064 -52.04152032 36.27202353 -52.125 38.1328125 C-52.44140625 40.49609375 -52.44140625 40.49609375 -54.56640625 43.74609375 C-57.44140625 45.49609375 -57.44140625 45.49609375 -61.06640625 45.55859375 C-64.82696182 44.37471514 -65.52468162 43.81197048 -67.44140625 40.49609375 C-69.20319106 29.95712875 -65.93281595 19.85310203 -60.12890625 11.12109375 C-45.58995861 -8.12072702 -20.44346049 -12.59317166 0 0 Z " fill="#040402" transform="translate(280.44140625,31.50390625)"/>
<path d="M0 0 C2.77484552 1.22093203 4.91126579 2.73581653 7.25 4.625 C11.30092371 7.58696572 14.0662695 7.48528497 19 7 C19.64453125 6.74089844 20.2890625 6.48179688 20.953125 6.21484375 C23 6 23 6 25.25390625 7.73046875 C26.01574219 8.54128906 26.77757812 9.35210937 27.5625 10.1875 C28.32691406 10.98542969 29.09132813 11.78335938 29.87890625 12.60546875 C33.63623663 16.84716953 33.63623663 16.84716953 35 19 C34.36474424 20.67889021 33.69313908 22.34416775 33 24 C33.32837546 29.32978639 34.64288498 32.55643913 37.625 36.9375 C50.22308714 56.41063266 55.22030316 78.00929301 55.0625 101 C55.05798828 102.25167969 55.05347656 103.50335938 55.04882812 104.79296875 C55.03711415 107.86202941 55.02071073 110.93098907 55 114 C53.9790625 112.948125 53.9790625 112.948125 52.9375 111.875 C51.96199498 110.91293966 50.9825096 109.95490576 50 109 C49.24251465 108.24940308 49.24251465 108.24940308 48.46972656 107.48364258 C43.74976761 103.09430538 38.74788627 100.91040083 32.75 98.6875 C31.8528125 98.34138672 30.955625 97.99527344 30.03125 97.63867188 C26.7051125 96.36149483 23.38030751 95.12676917 20 94 C19.95512451 93.40276123 19.91024902 92.80552246 19.86401367 92.19018555 C18.25657135 71.25339945 15.47192944 52.00214159 9 32 C6.57755673 24.36930371 4.39410876 16.80435312 2.7109375 8.97265625 C1.97808764 5.90837746 1.0370265 2.97369564 0 0 Z " fill="#D52D3C" transform="translate(317,38)"/>
<path d="M0 0 C1 2 1 2 0.328125 4.109375 C-0.02765625 4.98078125 -0.3834375 5.8521875 -0.75 6.75 C-2.34941538 10.94643222 -3.47570695 14.96473221 -4.3125 19.375 C-5.54945911 25.6007997 -7.42196905 31.44384047 -9.5 37.4375 C-12.41457819 45.9151735 -14.61672775 54.12155045 -16 63 C-16.19207031 64.21816406 -16.38414062 65.43632813 -16.58203125 66.69140625 C-17.89835044 75.77306169 -18.54277069 84.84338137 -19 94 C-19.79265259 94.27094482 -19.79265259 94.27094482 -20.60131836 94.54736328 C-38.34700488 100.61645847 -38.34700488 100.61645847 -52 113 C-52.66 113 -53.32 113 -54 113 C-55.07706901 76.32994262 -47.29537794 45.36734807 -22.15625 17.84375 C-15.47032723 10.76701241 -8.20000653 5.23742353 0 0 Z " fill="#D74852" transform="translate(194,38)"/>
<path d="M0 0 C4.41049692 0.72477958 8.49150243 2.15393115 12.671875 3.6875 C13.39489807 3.95006592 14.11792114 4.21263184 14.862854 4.4831543 C16.3830022 5.03617451 17.90250289 5.5909775 19.42138672 6.14746094 C21.75443801 7.00162482 24.08992526 7.84885282 26.42578125 8.6953125 C27.90379518 9.2339654 29.38166497 9.77301396 30.859375 10.3125 C31.91085724 10.69378052 31.91085724 10.69378052 32.98358154 11.08276367 C37.88470993 12.88470993 37.88470993 12.88470993 39 14 C39.15786308 15.85174706 39.25107356 17.7090911 39.31640625 19.56640625 C39.35830078 20.69111328 39.40019531 21.81582031 39.44335938 22.97460938 C39.48267578 24.15861328 39.52199219 25.34261719 39.5625 26.5625 C39.60568359 27.75037109 39.64886719 28.93824219 39.69335938 30.16210938 C39.79983546 33.10794784 39.90184841 36.0538743 40 39 C37.0703125 37.92578125 34.140625 36.8515625 31.2109375 35.77734375 C27.66557664 34.91903863 25.48616059 34.96613862 22 36 C19.68717413 39.46923881 19.57521414 40.92205575 20 45 C22.18592969 47.83922112 24.35548643 48.62891912 27.74609375 49.5859375 C42.44613034 54.14352885 42.44613034 54.14352885 45.37402344 57.64160156 C47.20314524 61.24622271 47.78663928 65.00101043 48 69 C43.02788192 67.61432775 38.1712297 66.08962946 33.3515625 64.2421875 C32.52374268 63.92644775 31.69592285 63.61070801 30.84301758 63.28540039 C29.1801477 62.64608187 27.52095542 61.99709859 25.8659668 61.33764648 C21.08905021 59.50565311 17.20624732 58.47398019 12 59 C11.484375 59.515625 10.96875 60.03125 10.4375 60.5625 C9.963125 61.036875 9.48875 61.51125 9 62 C2.36766299 61.30083709 -4.21307232 59.321974 -10 56 C-10.94592237 53.8813051 -11.04508129 52.23582253 -11.21484375 49.9375 C-11.90007858 47.68314925 -11.90007858 47.68314925 -14.75390625 46.375 C-17.8089807 45.12889779 -20.8562962 43.9998324 -24 43 C-16.99402072 28.20476426 -9.08483718 13.62725577 0 0 Z " fill="#DA616C" transform="translate(89,241)"/>
<path d="M0 0 C1.359375 1.70214844 1.359375 1.70214844 2.75 4.109375 C3.27118408 5.00060059 3.79236816 5.89182617 4.3293457 6.81005859 C4.88066162 7.78023926 5.43197754 8.75041992 6 9.75 C6.56871826 10.73178223 7.13743652 11.71356445 7.72338867 12.72509766 C13.29951066 22.39905336 18.69166956 32.17692726 24 42 C21.86195654 44.13804346 20.5972075 44.66072947 17.79174805 45.66064453 C16.91870529 45.97502472 16.04566254 46.28940491 15.14616394 46.61331177 C14.19429703 46.94974701 13.24243011 47.28618225 12.26171875 47.6328125 C11.27113968 47.98834198 10.28056061 48.34387146 9.25996399 48.71017456 C6.07102315 49.8537859 2.87943961 50.98978833 -0.3125 52.125 C-4.45548345 53.60382972 -8.59707145 55.08652441 -12.73828125 56.5703125 C-13.75705353 56.93384827 -14.77582581 57.29738403 -15.82546997 57.67193604 C-20.96076379 59.51284523 -26.07268356 61.39815225 -31.15771484 63.37402344 C-32.12871628 63.75098358 -33.09971771 64.12794373 -34.10014343 64.5163269 C-35.94067911 65.23538255 -37.77856441 65.96126986 -39.61335754 66.69485474 C-40.4269725 67.0132431 -41.24058746 67.33163147 -42.07885742 67.65966797 C-42.79103928 67.94357391 -43.50322113 68.22747986 -44.23698425 68.51998901 C-46 69 -46 69 -48 68 C-47.86932486 63.45711724 -47.14299222 59.39330984 -44 56 C-37.55572138 52.23673806 -30.25689018 50.07006809 -23.16137695 47.86279297 C-20.82734107 47.20875533 -20.82734107 47.20875533 -20 45 C-19.74139865 40.94857881 -19.69558446 39.45662331 -22 36 C-23.89351847 35.52041024 -23.89351847 35.52041024 -26.0625 35.625 C-26.77535156 35.61726563 -27.48820312 35.60953125 -28.22265625 35.6015625 C-32.26720263 36.18179278 -36.12372339 37.7079078 -40 39 C-39.67 30.42 -39.34 21.84 -39 13 C-33.92953006 11.14414172 -28.85817772 9.29124312 -23.78393555 7.44580078 C-22.05771954 6.81699393 -20.33212839 6.18646895 -18.60717773 5.55419922 C-16.1290618 4.64619815 -13.64877158 3.74437989 -11.16796875 2.84375 C-10.39599655 2.55939087 -9.62402435 2.27503174 -8.82865906 1.98205566 C-5.76126164 0.87403603 -3.28793881 0 0 0 Z " fill="#D9616C" transform="translate(423,241)"/>
<path d="M0 0 C3.59320828 2.86611202 5.03299095 6.60925619 6 11 C7.66532485 28.44626037 1.37097413 43.23468976 -9.375 56.8125 C-14.75929198 63.10642492 -20.61807538 69.09472375 -28 73 C-28.99 73 -29.98 73 -31 73 C-33.19140625 70.6640625 -33.19140625 70.6640625 -35.5625 67.625 C-38.63191205 63.67969922 -38.63191205 63.67969922 -42 60 C-43.3793915 56.04077358 -43.25310098 52.98756299 -42 49 C-39.28287583 45.44085769 -36.02698393 42.44737846 -32.68774414 39.47973633 C-25.96563486 33.46427484 -22.8187859 28.11687108 -22.0625 19 C-21.20718876 12.11326982 -19.74030703 7.26460713 -14.43359375 2.6328125 C-10.07874857 -0.29736175 -5.14163626 -1.10604966 0 0 Z " fill="#D84953" transform="translate(429,108)"/>
<path d="M0 0 C14.81146077 3.80336049 26.01026561 11.55944635 34.53125 24.44140625 C41.53169044 36.63632244 42.86266726 50.08939542 40.28125 63.82421875 C36.04780128 78.24867105 27.95222394 89.7537019 14.91015625 97.53125 C2.29139181 103.89991501 -11.86684819 106.31630425 -25.625 102.4375 C-42.1056338 96.78873239 -42.1056338 96.78873239 -45 91 C-44.30132812 90.86722656 -43.60265625 90.73445313 -42.8828125 90.59765625 C-41.51769531 90.33275391 -41.51769531 90.33275391 -40.125 90.0625 C-38.76761719 89.80146484 -38.76761719 89.80146484 -37.3828125 89.53515625 C-35.00043683 89.10036299 -35.00043683 89.10036299 -33 88 C-31.33427157 88.77089065 -29.69259736 89.59387318 -28.0625 90.4375 C-17.66159218 94.90038953 -5.49795532 94.68604578 5.125 90.9375 C17.12778162 85.49278203 23.68240412 77.74966875 28.875 65.8125 C32.97788546 54.40674399 31.89815902 43.00010289 27 32 C22.17310307 23.42502872 15.58088272 16.49459204 6.23828125 12.953125 C5.49964844 12.63859375 4.76101563 12.3240625 4 12 C3.375 9.8125 3.375 9.8125 3 7 C2.0951933 4.61684792 1.0487632 2.32551841 0 0 Z " fill="#EFE07D" transform="translate(267,16)"/>
<path d="M0 0 C6.37193166 -0.5309943 11.85371938 -0.12143245 17 4 C20.54004877 8.40079189 21.75727281 12.38300314 22.5 17.875 C23.94999259 28.47424159 27.81995068 34.24978514 35.75 41.3125 C44.09935441 49.27860211 44.09935441 49.27860211 44.5625 54.75 C43.55526849 61.74816059 37.82890311 66.31967852 33 71 C31.58999336 73.82001327 31.75451549 75.87007255 32 79 C33.26103899 81.77428577 34.31089914 83.48317435 36.75 85.3125 C39.86856585 86.26539512 42.76234825 86.12452507 46 86 C46 89.63 46 93.26 46 97 C35.90465541 97.73198873 29.63254274 95.65625617 20.75 91 C19.04263672 90.14148438 19.04263672 90.14148438 17.30078125 89.265625 C14.52228275 87.86470139 11.75680805 86.44300672 9 85 C10 83 10 83 13.3125 81.6875 C17.66120137 79.92306789 19.60459082 77.19866475 22.08447266 73.29125977 C24.07118525 68.31918039 23.37175581 62.50815309 23.37060547 57.20336914 C23.37493936 54.96876515 23.41116163 52.73620273 23.44921875 50.50195312 C23.52811552 40.75221668 22.6955305 32.23765038 16.921875 24.0546875 C16.20515625 23.33539063 15.4884375 22.61609375 14.75 21.875 C13.97011719 21.06417969 13.19023438 20.25335938 12.38671875 19.41796875 C11.59910156 18.62003906 10.81148437 17.82210937 10 17 C8.50871423 15.40709339 7.02883385 13.80340525 5.5625 12.1875 C4.92441406 11.50042969 4.28632812 10.81335938 3.62890625 10.10546875 C1.10596171 6.84439655 0 4.12412334 0 0 Z " fill="#D42D3C" transform="translate(82,108)"/>
<path d="M0 0 C0.7115625 -0.00386719 1.423125 -0.00773437 2.15625 -0.01171875 C5.62821801 -0.0052412 8.65438641 0.28531659 12 1.125 C14.6363711 1.22015564 17.2397239 1.26450611 19.875 1.25 C20.56980469 1.25386719 21.26460938 1.25773437 21.98046875 1.26171875 C26.10680713 1.25394787 29.94505295 0.83113854 34 0.125 C47.68445884 -0.91620882 59.75316823 0.97066793 70.7421875 9.890625 C71.15726562 10.29796875 71.57234375 10.7053125 72 11.125 C72 11.455 72 11.785 72 12.125 C38.34 12.125 4.68 12.125 -30 12.125 C-25.72349137 7.84849137 -23.67580472 6.18155364 -18.4375 3.875 C-17.32246094 3.37484375 -16.20742187 2.8746875 -15.05859375 2.359375 C-9.90534591 0.2796479 -5.54466312 -0.03013404 0 0 Z " fill="#EAEAED" transform="translate(235,267.875)"/>
<path d="M0 0 C-0.33 6.93 -0.66 13.86 -1 21 C-3.949375 22.03125 -6.89875 23.0625 -9.9375 24.125 C-19.97266684 27.76048695 -27.34105969 31.52498505 -34 40 C-34.66 40 -35.32 40 -36 40 C-36.0583721 35.64589022 -36.09372173 31.29188207 -36.125 26.9375 C-36.14175781 25.70837891 -36.15851563 24.47925781 -36.17578125 23.21289062 C-36.20876483 17.09443607 -36.17209842 11.75520567 -34 6 C-30.83536336 5.17945493 -27.66797138 4.37006574 -24.5 3.5625 C-23.613125 3.33240234 -22.72625 3.10230469 -21.8125 2.86523438 C-14.41133722 0.98773352 -7.68435515 0 0 0 Z " fill="#D42D3C" transform="translate(176,111)"/>
<path d="M0 0 C1.42199196 0.00103766 2.84398682 0.0000005 4.26597595 -0.00302124 C7.24293981 -0.00284199 10.21881809 0.01797236 13.19555664 0.05419922 C17.0115022 0.09961866 20.82586527 0.10065388 24.64200687 0.08716393 C27.57692031 0.08048213 30.51147272 0.09374709 33.44631767 0.11342239 C34.85331775 0.12112007 36.26035801 0.1234254 37.66737556 0.1202507 C39.63259012 0.1195092 41.59775145 0.14770742 43.56274414 0.17724609 C45.24008385 0.19106827 45.24008385 0.19106827 46.9513092 0.20516968 C49.71484375 0.7265625 49.71484375 0.7265625 51.53684998 2.26089478 C52.71484375 4.7265625 52.71484375 4.7265625 53.71484375 12.7265625 C29.95484375 12.7265625 6.19484375 12.7265625 -18.28515625 12.7265625 C-18.28515625 6.7265625 -18.28515625 6.7265625 -17.17797852 3.39697266 C-12.30307383 -1.10312925 -6.34626485 -0.09083908 0 0 Z " fill="#443F44" transform="translate(238.28515625,294.2734375)"/>
<path d="M0 0 C0.25579834 0.56807373 0.51159668 1.13614746 0.77514648 1.72143555 C6.00454441 13.24614788 11.35018914 23.89562384 19 34 C20.02500517 35.43452827 21.0466487 36.87147499 22.0625 38.3125 C22.701875 39.199375 23.34125 40.08625 24 41 C21 44 18 47 15 50 C5.09845966 39.08556722 -5.66063671 24.63492773 -9 10 C-7.84147818 5.78719339 -4.90589873 0 0 0 Z " fill="#F1E8A9" transform="translate(157,289)"/>
<path d="M0 0 C3.94985657 1.82627777 7.17707592 3.9205437 9 8 C8.36733633 11.5659225 7.53995564 13.77683702 6 17 C5.59394531 17.88751953 5.59394531 17.88751953 5.1796875 18.79296875 C0.05183093 29.96277807 -6.30394181 39.41398062 -14 49 C-17.21043882 47.61811547 -19.04936365 46.07578097 -21.25 43.375 C-21.77078125 42.74335938 -22.2915625 42.11171875 -22.828125 41.4609375 C-23.21484375 40.97882813 -23.6015625 40.49671875 -24 40 C-23.45472656 39.3915625 -22.90945313 38.783125 -22.34765625 38.15625 C-12.54721182 26.76428041 -5.98712062 13.71168016 0 0 Z " fill="#F2E8AA" transform="translate(355,289)"/>
<path d="M0 0 C3.0625 0.5 3.0625 0.5 6 2.5625 C8.0625 5.5 8.0625 5.5 8.01953125 8.90234375 C6.05261415 16.29634638 -2.15204178 19.84876248 -8.4140625 23.62890625 C-18.03107298 29.10065359 -18.03107298 29.10065359 -23.9375 28.5 C-27.22426157 26.33765686 -27.83211824 24.9742179 -28.6875 21.125 C-27.73916631 16.54138719 -26.34265996 15.62237389 -22.56640625 13.109375 C-21.69886719 12.57828125 -20.83132813 12.0471875 -19.9375 11.5 C-18.85339844 10.82453125 -17.76929688 10.1490625 -16.65234375 9.453125 C-14.40848354 8.06087507 -12.15461296 6.6920335 -9.890625 5.33203125 C-7.00049628 3.60921612 -7.00049628 3.60921612 -4.73046875 1.79296875 C-2.9375 0.5 -2.9375 0.5 0 0 Z " fill="#050404" transform="translate(350.9375,381.5)"/>
<path d="M0 0 C2.67285315 0.55616944 5.24944317 1.15652313 7.875 1.875 C9.2822364 2.24728905 10.68978739 2.6183911 12.09765625 2.98828125 C13.1033667 3.25439209 13.1033667 3.25439209 14.12939453 3.52587891 C16.50739313 4.12860317 18.9038074 4.59974625 21.3125 5.0625 C24.90573777 5.97603503 25.83211715 6.23137853 28 9 C28.49125459 12.85985753 28.56021138 15.08965651 26.5 18.4375 C20.30625988 22.30858758 11.48489439 19.31367671 4.8125 17.8125 C3.84119141 17.61591797 2.86988281 17.41933594 1.86914062 17.21679688 C-3.89048175 15.9338104 -7.43690577 14.82065689 -11 10 C-11.6767545 6.31544773 -11.49791771 4.75683492 -9.4375 1.625 C-6.09735581 -0.60176279 -3.98751051 -0.22716235 0 0 Z " fill="#050303" transform="translate(199,463)"/>
<path d="M0 0 C3.30526865 -0.08157943 4.77417371 0.05385848 7.75024414 1.70019531 C9.81274414 4.07519531 9.81274414 4.07519531 10.43774414 7.01269531 C9.58475636 11.19233544 8.24751284 12.57067647 4.81274414 15.07519531 C-1.72783757 16.23681446 -8.30604643 16.35727391 -14.93725586 16.45019531 C-15.96463867 16.48757813 -16.99202148 16.52496094 -18.05053711 16.56347656 C-25.50960641 16.6510015 -25.50960641 16.6510015 -28.89038086 13.77832031 C-30.66731609 10.07458785 -30.34298824 7.9757921 -29.18725586 4.07519531 C-26.236356 1.22620776 -24.05311657 0.68131398 -20.01147461 0.56347656 C-18.52164062 0.51030273 -18.52164062 0.51030273 -17.00170898 0.45605469 C-15.45386719 0.4222168 -15.45386719 0.4222168 -13.87475586 0.38769531 C-12.85446289 0.35353516 -11.83416992 0.319375 -10.78295898 0.28417969 C-7.18891806 0.17034129 -3.593607 0.12354403 0 0 Z " fill="#050303" transform="translate(277.187255859375,469.9248046875)"/>
<path d="M0 0 C2 1.625 2 1.625 3 4 C2.78940491 10.00196007 2.78940491 10.00196007 0.74462891 12.5871582 C-2.81602988 15.470664 -7.36216079 16.64270964 -11.625 18.1875 C-13.06552734 18.73954102 -13.06552734 18.73954102 -14.53515625 19.30273438 C-20.60606361 21.52269304 -25.53088855 22.69266517 -32 22 C-33.71728516 20.71948242 -33.71728516 20.71948242 -35 19 C-35.70779977 13.42607683 -35.70779977 13.42607683 -35 11 C-30.78925142 6.42732125 -25.0710228 5.10447421 -19.3125 3.3125 C-17.4124345 2.70544625 -15.5126789 2.09742141 -13.61328125 1.48828125 C-12.77579346 1.22571533 -11.93830566 0.96314941 -11.07543945 0.69262695 C-6.73838299 -0.75475914 -4.7097226 -1.07414726 0 0 Z " fill="#050303" transform="translate(342,456)"/>
<path d="M0 0 C3.68317067 1.10382589 7.23899533 2.45980085 10.8125 3.875 C11.73998047 4.22691406 12.66746094 4.57882812 13.62304688 4.94140625 C17.83576638 6.5754676 21.53711486 8.02222987 25 11 C25.49609375 12.9375 25.49609375 12.9375 25.4375 15 C25.43621094 15.680625 25.43492188 16.36125 25.43359375 17.0625 C24.87204653 19.57175604 23.98001498 20.38620788 22 22 C15.12496185 23.54233943 8.54592011 20.8138035 2.25 18.3125 C1.33089844 17.97283203 0.41179687 17.63316406 -0.53515625 17.28320312 C-5.75609854 15.26207134 -9.52003218 13.44861866 -13 9 C-13.66866442 5.35949372 -13.43946279 3.74517603 -11.5625 0.5625 C-7.72832684 -1.77541047 -4.22073564 -0.8447832 0 0 Z " fill="#050202" transform="translate(76,328)"/>
<path d="M0 0 C3.14867443 1.33298573 6.05484574 3.01984337 9 4.75 C9.78117187 5.1934375 10.56234375 5.636875 11.3671875 6.09375 C22.42064469 12.42064469 22.42064469 12.42064469 26 16 C26.4375 19.375 26.4375 19.375 26 23 C23.9375 25.5 23.9375 25.5 21 27 C14.37156885 26.83853822 9.48332481 23.90832849 3.8125 20.6875 C2.47928711 19.95756836 2.47928711 19.95756836 1.11914062 19.21289062 C-3.12100743 16.84592593 -6.80677543 14.73620203 -10 11 C-10.56783945 7.02512383 -10.62340519 4.93510779 -8.375 1.5625 C-5.19710537 -0.52822015 -3.79298029 -0.43831923 0 0 Z " fill="#040303" transform="translate(144,438)"/>
<path d="M0 0 C2.8125 0.5625 2.8125 0.5625 5.1875 2.125 C6.8125 4.5625 6.8125 4.5625 7.625 7.8125 C6.34168796 13.73547865 2.55034376 16.05736723 -2.1875 19.5625 C-3.07139404 20.22064697 -3.07139404 20.22064697 -3.97314453 20.89208984 C-5.90155942 22.30962054 -7.85083917 23.69140488 -9.8125 25.0625 C-10.43326416 25.50827393 -11.05402832 25.95404785 -11.69360352 26.41333008 C-15.9448021 29.27651992 -18.91638705 30.23910985 -24.1875 29.5625 C-26.6875 27.5 -26.6875 27.5 -28.1875 24.5625 C-28.2890625 21.26171875 -28.2890625 21.26171875 -27.1875 17.5625 C-24.76670687 15.07806126 -21.97868253 13.29546914 -19.0625 11.4375 C-17.55989376 10.43489894 -16.05728957 9.43229481 -14.5546875 8.4296875 C-13.82064697 7.95297607 -13.08660645 7.47626465 -12.33032227 6.98510742 C-10.28142595 5.6248569 -8.30736482 4.19471113 -6.33203125 2.73046875 C-3.1875 0.5625 -3.1875 0.5625 0 0 Z " fill="#040303" transform="translate(389.1875,424.4375)"/>
<path d="M0 0 C2.125 2.375 2.125 2.375 2.75 5.3125 C1.94985816 9.23319501 0.28132734 11.09111436 -2.875 13.375 C-6.38374717 15.09757556 -10.00089845 16.3982903 -13.6875 17.6875 C-14.64720703 18.04650391 -15.60691406 18.40550781 -16.59570312 18.77539062 C-22.26211449 20.80601586 -26.85617964 21.88972238 -32.875 21.375 C-34.875 20.375 -34.875 20.375 -35.875 18.375 C-36.27324692 15.64416397 -36.43241396 13.08556201 -35.875 10.375 C-32.24864702 5.87196263 -26.30065491 4.62515376 -21.0625 2.6875 C-19.98162109 2.27177734 -18.90074219 1.85605469 -17.78710938 1.42773438 C-16.73716797 1.03521484 -15.68722656 0.64269531 -14.60546875 0.23828125 C-13.17303833 -0.29865356 -13.17303833 -0.29865356 -11.71166992 -0.84643555 C-7.22988973 -2.07652394 -4.08556928 -2.30923481 0 0 Z " fill="#040202" transform="translate(446.875,328.625)"/>
<path d="M0 0 C4.32485174 1.38387055 7.99087162 4.0413975 11.74755859 6.53417969 C13.00922852 7.34822266 13.00922852 7.34822266 14.29638672 8.17871094 C16.56661423 9.65138826 18.8258502 11.13242271 21.06005859 12.65917969 C21.79716064 13.13242676 22.5342627 13.60567383 23.29370117 14.09326172 C25.06005859 15.65917969 25.06005859 15.65917969 25.62255859 19.59667969 C25.44670052 22.88340651 25.14339121 23.55869036 22.93505859 26.22167969 C19.30055897 28.0389295 17.96506759 27.6413059 14.06005859 26.65917969 C11.69027249 25.52012658 9.49574669 24.37175662 7.24755859 23.03417969 C6.63952393 22.67590088 6.03148926 22.31762207 5.4050293 21.94848633 C-8.10923347 13.84922788 -8.10923347 13.84922788 -10.31494141 8.03417969 C-9.93994141 4.65917969 -9.93994141 4.65917969 -7.93994141 1.65917969 C-4.77234106 -0.45255388 -3.6529425 -0.65474554 0 0 Z " fill="#050404" transform="translate(162.93994140625,382.3408203125)"/>
<path d="M0 0 C5.7806184 5.44058202 8.21571217 11.03994065 8.5 19 C8.12349208 28.57058852 3.96378137 35.56068752 -3 42 C-8.016194 45.63096888 -12.6094742 47.15280185 -18.75 47.0625 C-19.54921875 47.05347656 -20.3484375 47.04445312 -21.171875 47.03515625 C-21.77515625 47.02355469 -22.3784375 47.01195312 -23 47 C-22.01 46.071875 -22.01 46.071875 -21 45.125 C-7.95905893 31.86302603 -2.33061789 18.13442683 0 0 Z " fill="#F1E37F" transform="translate(276,48)"/>
<path d="M0 0 C2.90246998 1.14845934 4.72431926 2.90184022 7.046875 4.984375 C15.20275444 11.83007301 24.59407567 16.95537112 35.171875 18.859375 C34.181875 22.159375 33.191875 25.459375 32.171875 28.859375 C26.0183731 27.65398775 20.63406382 26.06404888 14.984375 23.359375 C14.26258057 23.01841797 13.54078613 22.67746094 12.79711914 22.32617188 C5.32402236 18.66213407 -1.26194054 13.93750181 -7.828125 8.859375 C-4.37581501 -0.33660115 -4.37581501 -0.33660115 0 0 Z " fill="#F1E7A9" transform="translate(191.828125,341.140625)"/>
<path d="M0 0 C3.29756303 1.48687712 4.77391177 4.03892214 6.94921875 6.87890625 C5.45598269 11.45325614 1.71999658 13.32299736 -2.17578125 15.69140625 C-2.88138184 16.12573975 -3.58698242 16.56007324 -4.31396484 17.00756836 C-9.28910491 19.99518568 -14.36556425 22.603736 -19.67578125 24.94140625 C-20.6505542 25.37126831 -20.6505542 25.37126831 -21.64501953 25.80981445 C-25.42357478 27.39916006 -28.98549008 28.37230843 -33.05078125 28.87890625 C-34.04078125 25.57890625 -35.03078125 22.27890625 -36.05078125 18.87890625 C-35.09558594 18.59917969 -34.14039063 18.31945312 -33.15625 18.03125 C-21.65821182 14.52347514 -12.40044718 9.68073129 -3.8046875 1.06640625 C-2.05078125 -0.12109375 -2.05078125 -0.12109375 0 0 Z " fill="#F1E8A9" transform="translate(321.05078125,341.12109375)"/>
<path d="M0 0 C2.93520155 2.93520155 2.99682275 6.41969098 3.625 10.375 C3.75688721 11.18050293 3.88877441 11.98600586 4.0246582 12.81591797 C5.01467964 19.23729815 5.34394678 25.50322743 5 32 C-1.23505228 31.35714676 -7.3861106 30.49994065 -13.5625 29.4375 C-14.38041016 29.29892578 -15.19832031 29.16035156 -16.04101562 29.01757812 C-18.02772915 28.6806501 -20.01392199 28.34065416 -22 28 C-19.69836427 25.682436 -17.40053081 23.37225805 -15.0078125 21.1484375 C-8.54940437 15.0652066 -3.84222113 7.98286721 0 0 Z " fill="#D44751" transform="translate(317,95)"/>
<path d="M0 0 C2.29050015 2.94198972 4.21403303 5.98870746 6.125 9.1875 C9.74251357 14.93251094 14.06044767 19.38914246 19 24 C20.33793099 25.32871976 21.67267258 26.66068768 23 28 C14.00862697 29.793762 5.16334671 31.37978531 -4 32 C-4.20125895 24.83732028 -3.63643429 18.01547621 -2.5625 10.9375 C-2.42779297 9.98939453 -2.29308594 9.04128906 -2.15429688 8.06445312 C-1.13616071 1.13616071 -1.13616071 1.13616071 0 0 Z " fill="#D32D3B" transform="translate(194,95)"/>
<path d="M0 0 C2.15727754 -0.03451644 4.3152856 -0.03591324 6.47265625 -0.0078125 C7.55740234 -0.04777344 8.64214844 -0.08773438 9.75976562 -0.12890625 C17.45257227 -0.11944982 17.45257227 -0.11944982 20.40283203 2.56933594 C22.83857295 6.26370028 23.53515625 8.36028377 23.53515625 12.8671875 C17.08559556 13.83003661 10.80078941 14.01831972 4.28515625 13.9921875 C3.30546875 13.99605469 2.32578125 13.99992187 1.31640625 14.00390625 C0.3728125 14.00261719 -0.57078125 14.00132812 -1.54296875 14 C-2.3927832 13.99887207 -3.24259766 13.99774414 -4.11816406 13.99658203 C-6.36518932 13.87268239 -8.30916158 13.49349216 -10.46484375 12.8671875 C-9.76131637 5.48014998 -7.847481 0.67773113 0 0 Z " fill="#F1E7A9" transform="translate(249.46484375,361.1328125)"/>
<path d="M0 0 C1.01707031 0.30744141 1.01707031 0.30744141 2.0546875 0.62109375 C8.41660866 2.46270251 14.39465756 3.521352 21 4 C21 9.61 21 15.22 21 21 C16.72706144 20.28784357 13.54731541 19.61459336 9.6015625 18.15234375 C8.62832031 17.79462891 7.65507813 17.43691406 6.65234375 17.06835938 C5.65332031 16.69517578 4.65429688 16.32199219 3.625 15.9375 C2.60277344 15.56044922 1.58054687 15.18339844 0.52734375 14.79492188 C-1.98356127 13.86799899 -4.49255574 12.93623553 -7 12 C-5.20171641 7.35721951 -2.96927498 3.98507958 0 0 Z " fill="#DD7D83" transform="translate(107,217)"/>
<path d="M0 0 C1.60546875 1.99609375 1.60546875 1.99609375 3.1875 4.4375 C3.71730469 5.24058594 4.24710937 6.04367188 4.79296875 6.87109375 C6 9 6 9 6 11 C1.89864435 12.50776616 -2.20652067 14.00487576 -6.3125 15.5 C-7.47974609 15.92925781 -8.64699219 16.35851562 -9.84960938 16.80078125 C-11.52700195 17.40986328 -11.52700195 17.40986328 -13.23828125 18.03125 C-14.26993408 18.40830078 -15.30158691 18.78535156 -16.36450195 19.17382812 C-19 20 -19 20 -22 20 C-22 14.39 -22 8.78 -22 3 C-18.51692708 2.54427083 -15.03385417 2.08854167 -11.55078125 1.6328125 C-8.06540633 1.14007379 -8.06540633 1.14007379 -5.23046875 -0.1328125 C-3 -1 -3 -1 0 0 Z " fill="#DE7E84" transform="translate(406,218)"/>
<path d="M0 0 C4.875 1.875 4.875 1.875 6 3 C6.1034893 4.48261445 6.13850685 5.97009225 6.14526367 7.45629883 C6.15164352 8.40430862 6.15802338 9.35231842 6.16459656 10.32905579 C6.16570938 11.36128769 6.1668222 12.39351959 6.16796875 13.45703125 C6.17129715 14.51153976 6.17462555 15.56604828 6.17805481 16.6525116 C6.18312958 18.88951174 6.18546297 21.12651949 6.18530273 23.36352539 C6.18748401 26.78739948 6.20561968 30.21094884 6.22460938 33.63476562 C6.2275442 35.80468639 6.2295284 37.9746087 6.23046875 40.14453125 C6.23765427 41.17069046 6.24483978 42.19684967 6.25224304 43.25410461 C6.24916641 44.21157089 6.24608978 45.16903717 6.24291992 46.15551758 C6.24434494 46.99633377 6.24576996 47.83714996 6.24723816 48.70344543 C5.97796672 51.20466351 5.25455795 52.83791348 4 55 C1.69 53.35 -0.62 51.7 -3 50 C-2.80083984 48.73349609 -2.80083984 48.73349609 -2.59765625 47.44140625 C-0.42742492 31.71118942 -0.34503826 15.85352637 0 0 Z " fill="#E7DEA2" transform="translate(363,224)"/>
<path d="M0 0 C0.01981934 0.98170166 0.03963867 1.96340332 0.06005859 2.97485352 C0.13738758 6.69333272 0.22588207 10.4114835 0.31738281 14.12963867 C0.35515667 15.72462377 0.39008857 17.31967927 0.421875 18.91479492 C0.63360978 29.41882479 1.361022 39.61434919 3 50 C-0.96 52.475 -0.96 52.475 -5 55 C-5.81160643 51.75357428 -6.13844257 49.45707174 -6.17700195 46.18725586 C-6.18983719 45.23624496 -6.20267242 44.28523407 -6.21589661 43.30540466 C-6.22328354 42.28551956 -6.23067047 41.26563446 -6.23828125 40.21484375 C-6.246353 39.1622084 -6.25442474 38.10957306 -6.26274109 37.02503967 C-6.27655755 34.80178464 -6.28729058 32.57850862 -6.29516602 30.35522461 C-6.31245334 26.94670073 -6.35637012 23.53912849 -6.40039062 20.13085938 C-6.41051144 17.9713613 -6.41902945 15.81185499 -6.42578125 13.65234375 C-6.44328934 12.63043442 -6.46079742 11.60852509 -6.47883606 10.5556488 C-6.47591049 9.60779007 -6.47298492 8.65993134 -6.4699707 7.68334961 C-6.47583694 6.84936142 -6.48170319 6.01537323 -6.48774719 5.15611267 C-6 3 -6 3 -4.09562683 1.20729065 C-2 0 -2 0 0 0 Z " fill="#E8DEA3" transform="translate(149,224)"/>
<path d="M0 0 C2.875 2.0625 2.875 2.0625 5 5 C5.06395945 8.70964832 4.95314101 10.93248207 2.4375 13.75 C-2.7936523 16.4326422 -8.00310287 18.95405182 -14 18 C-16.375 16.4375 -16.375 16.4375 -18 14 C-18.5625 10.5 -18.5625 10.5 -18 7 C-14.04186621 2.54709948 -6.06440371 -1.31122242 0 0 Z " fill="#070303" transform="translate(478,387)"/>
<path d="M0 0 C5.27081086 1.49339641 10.81163814 3.12413814 14.75 7.0625 C15.17834085 10.91756762 15.30897202 13.19050365 13.1875 16.5 C9.68281642 18.74659204 7.88261692 18.662396 3.75 18.0625 C-5.28182126 14.51476811 -5.28182126 14.51476811 -8.25 10.0625 C-8.6875 7.6875 -8.6875 7.6875 -8.25 5.0625 C-5.68866896 1.49215976 -4.47548099 0.08606694 0 0 Z " fill="#060303" transform="translate(37.25,386.9375)"/>
<path d="M0 0 C6.69044843 5.81950248 9.2957987 16.33951222 11.75 24.625 C11.94835449 25.29225098 12.14670898 25.95950195 12.35107422 26.64697266 C15.34353054 37.22168357 16.27896661 47.20257486 16.125 58.1875 C16.11597656 59.42564453 16.10695313 60.66378906 16.09765625 61.93945312 C16.07433276 64.95984511 16.04160477 67.97981399 16 71 C13.30578511 68.30578511 13.5287529 66.53018825 13.140625 62.76171875 C12.99753906 61.47620117 12.85445313 60.19068359 12.70703125 58.86621094 C12.63307129 58.18393433 12.55911133 57.50165771 12.48291016 56.79870605 C10.60601797 39.78568176 6.84609594 24.11145972 0.6796875 8.109375 C-0.20842524 5.35316304 -0.31011574 2.86857058 0 0 Z " fill="#D34650" transform="translate(323,56)"/>
<path d="M0 0 C2.04320055 1.70076471 3.88475818 3.37496689 5.75 5.25 C6.25660156 5.72824219 6.76320313 6.20648438 7.28515625 6.69921875 C9.58638968 8.98804661 10.91552604 10.49024332 11.453125 13.734375 C11 16 11 16 9 18 C5.11531967 18.10499136 3.15246109 16.44494088 0.44921875 13.91015625 C-0.81511335 12.6378807 -2.06876029 11.35491335 -3.3125 10.0625 C-3.95767578 9.41603516 -4.60285156 8.76957031 -5.26757812 8.10351562 C-10 3.28095238 -10 3.28095238 -10 1 C-3.59033657 -1.47646087 -3.59033657 -1.47646087 0 0 Z " fill="#E8DA79" transform="translate(296,385)"/>
<path d="M0 0 C2.27999402 0.54181676 4.15418175 1.19589958 6.19921875 2.33203125 C4.17954686 6.74912514 1.25815831 9.71322151 -2.11328125 13.14453125 C-2.68240234 13.75490234 -3.25152344 14.36527344 -3.83789062 14.99414062 C-5.43004292 16.61554027 -6.91629283 18.061285 -8.80078125 19.33203125 C-11.46597096 19.2846339 -12.89235506 19.24045744 -14.80078125 17.33203125 C-15.203125 15.171875 -15.203125 15.171875 -14.80078125 12.33203125 C-13.05153863 9.91979312 -11.44392596 7.97767523 -9.36328125 5.89453125 C-8.8228418 5.34829102 -8.28240234 4.80205078 -7.72558594 4.23925781 C-5.11116009 1.80066945 -3.61480766 0.42853368 0 0 Z " fill="#E9DB7A" transform="translate(219.80078125,383.66796875)"/>
<path d="M0 0 C0 6.6 0 13.2 0 20 C-4 22 -4 22 -7 22 C-7 15.07 -7 8.14 -7 1 C-4 0 -4 0 0 0 Z " fill="#ECE3A6" transform="translate(150,187)"/>
<path d="M0 0 C2.31 0.33 4.62 0.66 7 1 C7 8.26 7 15.52 7 23 C4.69 22.01 2.38 21.02 0 20 C0 13.4 0 6.8 0 0 Z " fill="#ECE3A6" transform="translate(362,187)"/>
<path d="M0 0 C7 8.75 7 8.75 7 13 C4.03 13 1.06 13 -2 13 C-1.85966889 11.02043559 -1.7125877 9.04134859 -1.5625 7.0625 C-1.48128906 5.96035156 -1.40007812 4.85820313 -1.31640625 3.72265625 C-1 1 -1 1 0 0 Z " fill="#CF4650" transform="translate(194,95)"/>
<path d="M0 0 C1.77260631 0.45142775 3.5430368 0.91140523 5.3125 1.375 C6.79169922 1.75785156 6.79169922 1.75785156 8.30078125 2.1484375 C11 3 11 3 14 5 C8.72 4.34 3.44 3.68 -2 3 C-1.34 2.01 -0.68 1.02 0 0 Z " fill="#C22A37" transform="translate(297,120)"/>
</svg>
